<?xml version="1.0"?>
<svg xmlns="http://www.w3.org/2000/svg" xmlns:xlink="http://www.w3.org/1999/xlink" version="1.1" id="Layer_1" x="0px" y="0px" viewBox="0 0 512 512" style="enable-background:new 0 0 512 512;" xml:space="preserve" width="512px" height="512px" class=""><g><g id="XMLID_2110_">
	<g id="XMLID_569_">
		<path id="XMLID_856_" d="M502,491.995h-10v-182c0-5.522-4.478-10-10-10h-60.849c-3.633-21.393-18.747-39.364-39.887-46.34    L261.223,214.04c-7.26-2.396-14.232-5.51-20.852-9.273l6.7-6.7c3.905-3.905,3.905-10.237,0-14.142l-48.883-48.884    c-1.876-1.875-4.419-2.929-7.071-2.929s-5.195,1.054-7.071,2.929l-0.356,0.356L51.228,2.934c-3.906-3.905-10.236-3.905-14.143,0    c-3.905,3.905-3.905,10.237,0,14.143l132.463,132.462l-87.671,87.671l-15.474-15.474l38.385-38.385    c3.905-3.905,3.905-10.237,0-14.143c-3.906-3.905-10.236-3.905-14.143,0L52.26,207.593l-35.189-35.189    c-3.904-3.904-10.234-3.905-14.143,0c-3.905,3.905-3.905,10.237,0,14.143l64.806,64.806l-0.355,0.355    c-3.905,3.905-3.905,10.237,0,14.143l48.883,48.884c1.876,1.875,4.419,2.929,7.071,2.929s5.195-1.054,7.071-2.929l7.451-7.451    l5.448,5.413c27.453,27.277,63.886,42.3,102.587,42.3c0.707,0,1.409,0.038,2.109,0.096v136.904h-24.02c-5.522,0-10,4.478-10,10    s4.478,10,10,10H258h224h20c5.522,0,10-4.478,10-10S507.523,491.995,502,491.995z M88.592,258.778l0.346-0.346    c0.003-0.003,0.007-0.006,0.01-0.009L190.762,156.61c0.003-0.003,0.006-0.007,0.009-0.01l0.346-0.346l34.74,34.741L123.333,293.52    L88.592,258.778z M157.401,298.508l-5.403-5.368l73.791-73.791c9.139,5.697,18.91,10.298,29.167,13.683l120.041,39.615    c12.888,4.253,22.395,14.671,25.713,27.348H299.297l-18.225-18.226c-3.905-3.903-10.235-3.904-14.143,0    c-3.905,3.905-3.905,10.237,0,14.143l48.773,48.773c2.412,2.412,3.572,5.739,3.184,9.129s-2.272,6.368-5.169,8.172    c-3.587,2.233-8.217,2.223-11.794-0.024l-31.809-19.987c-7.266-4.566-15.643-6.979-24.224-6.979    C212.508,334.995,181.081,322.037,157.401,298.508z M268,491.995V364.266l23.282,14.63c5.026,3.157,10.792,4.736,16.56,4.736    c5.723,0,11.447-1.556,16.447-4.669c8.105-5.048,13.379-13.384,14.467-22.87s-2.16-18.8-8.912-25.551l-10.548-10.548H472v172H268z    " data-original="#000000" class="active-path" data-old_color="#ffffff" fill="#ffffff"/>
		<path id="XMLID_944_" d="M417.546,361.541l-58.661,58.661l-21.277-21.278c-3.905-3.903-10.235-3.905-14.143,0    c-3.905,3.905-3.905,10.237,0,14.143l28.349,28.35c1.875,1.875,4.419,2.929,7.071,2.929s5.196-1.054,7.071-2.929l65.732-65.732    c3.905-3.905,3.905-10.237,0-14.143C427.782,357.637,421.452,357.637,417.546,361.541z" data-original="#000000" class="active-path" data-old_color="#ffffff" fill="#ffffff"/>
		<path id="XMLID_945_" d="M133.07,155.065c1.86-1.86,2.931-4.44,2.931-7.07c0-2.63-1.07-5.21-2.931-7.07    c-1.859-1.86-4.439-2.93-7.069-2.93s-5.21,1.07-7.07,2.93c-1.86,1.86-2.93,4.44-2.93,7.07c0,2.63,1.069,5.21,2.93,7.07    s4.44,2.93,7.07,2.93S131.21,156.925,133.07,155.065z" data-original="#000000" class="active-path" data-old_color="#ffffff" fill="#ffffff"/>
	</g>
</g></g> </svg>
